<svg width="90" height="81" viewBox="0 0 90 81" fill="none" xmlns="http://www.w3.org/2000/svg">
  <path d="M8.96924 31.0911H37.0789L42.2039 44.1364H12.5412L8.96924 31.0911Z" fill="#FAFAFA"/>
  <path d="M13.4736 37.4587H34.75M14.0948 41.3413H38.6326" stroke="#208564"/>
  <path fill-rule="evenodd" clip-rule="evenodd" d="M19.9765 11.1055C19.9765 11.3864 19.9586 11.6628 19.9239 11.9336C20.7769 11.8352 21.6514 11.784 22.5422 11.784C23.3987 11.784 24.2401 11.8313 25.0619 11.9225C25.0177 11.6254 24.9948 11.3213 24.9948 11.0116C24.9948 7.69162 27.6302 5.00024 30.8813 5.00024C34.1323 5.00024 36.7677 7.69162 36.7677 11.0116C36.7677 12.8579 35.9527 14.5097 34.6701 15.6124C37.4911 17.7994 39.2205 20.7491 39.2205 23.9946C39.2205 30.7383 31.7534 35.1291 22.5422 35.1291C13.3309 35.1291 5.86377 30.7383 5.86377 23.9946C5.86377 20.7715 7.56947 17.8401 10.3561 15.6578C9.17397 14.5398 8.42996 12.9146 8.42996 11.1055C8.42996 7.73367 11.0147 5.00024 14.2032 5.00024C17.3917 5.00024 19.9765 7.73367 19.9765 11.1055Z" fill="url(#paint0_linear_591_7540)"/>
  <path d="M16.4244 11.6787C16.4244 12.9652 15.3815 14.0082 14.0949 14.0082C12.8083 14.0082 11.7654 12.9652 11.7654 11.6787C11.7654 10.3921 12.8083 9.34912 14.0949 9.34912C15.3815 9.34912 16.4244 10.3921 16.4244 11.6787Z" fill="#208564"/>
  <path d="M33.5077 11.6787C33.5077 12.9652 32.4647 14.0082 31.1782 14.0082C29.8916 14.0082 28.8486 12.9652 28.8486 11.6787C28.8486 10.3921 29.8916 9.34912 31.1782 9.34912C32.4647 9.34912 33.5077 10.3921 33.5077 11.6787Z" fill="#208564"/>
  <path d="M20.4942 17.3308C20.4942 18.5653 19.5374 19.5318 18.3986 19.5318C17.2598 19.5318 16.303 18.5653 16.303 17.3308C16.303 16.0963 17.2598 15.1299 18.3986 15.1299C19.5374 15.1299 20.4942 16.0963 20.4942 17.3308Z" stroke="#208564"/>
  <path d="M29.5784 17.3308C29.5784 18.5653 28.6216 19.5318 27.4828 19.5318C26.344 19.5318 25.3872 18.5653 25.3872 17.3308C25.3872 16.0963 26.344 15.1299 27.4828 15.1299C28.6216 15.1299 29.5784 16.0963 29.5784 17.3308Z" stroke="#208564"/>
  <line x1="20.9937" y1="17.2803" x2="24.887" y2="17.2803" stroke="#208564"/>
  <path d="M38.8439 33.3701C38.7016 33.9069 38.1578 34.1937 37.6332 34.0087L35.1604 33.1367C34.645 32.9549 34.3406 32.3851 34.4764 31.8563L38.7915 15.0585C38.9213 14.5531 39.4098 14.2598 39.9132 14.385L42.582 15.0483C43.1479 15.189 43.5052 15.797 43.3549 16.3635L38.8439 33.3701Z" fill="#208564"/>
  <path d="M34.042 33.9732C33.9591 33.5764 34.319 33.2094 34.6744 33.3285L36.4209 33.9137L38.0265 34.4608C38.3815 34.5818 38.4471 35.0931 38.1418 35.3587L34.9173 38.1642L34.042 33.9732Z" fill="#208564"/>
  <circle cx="40.8072" cy="32.7989" r="4.19316" fill="url(#paint1_linear_591_7540)"/>
  <circle cx="8.19316" cy="33.1101" r="4.19316" fill="url(#paint2_linear_591_7540)"/>
  <rect x="28.0696" y="8.17114" width="5.59088" height="2.79544" transform="rotate(-7.46519 28.0696 8.17114)" fill="#1EDA8D"/>
  <rect x="11.9431" y="7.08472" width="5.59088" height="2.79544" transform="rotate(15.8637 11.9431 7.08472)" fill="#1EDA8D"/>
  <path fill-rule="evenodd" clip-rule="evenodd" d="M22.32 24.5649C22.4986 24.3995 22.7745 24.3995 22.9531 24.5649L26.5132 27.8613L27.1462 27.1775L23.5862 23.8812C23.0503 23.385 22.2228 23.385 21.6869 23.8812L18.1268 27.1775L18.7599 27.8613L22.32 24.5649Z" fill="#208564"/>
  <g clip-path="url(#clip0_591_7540)">
    <path d="M79.0437 63.6751H89.9999V66.2772H77.7655L79.0437 63.6751ZM82.0567 68.6967H89.4064V71.1847H82.0567V68.6967ZM82.0338 73.7411H89.7032V76.2976H82.0338V73.7411ZM80.6643 64.5425H83.4718V81.3876H80.6643V64.5425ZM79.5687 60.16L82.2165 60.8676C80.9382 64.5653 78.8839 68.3543 76.784 70.7282C76.3503 70.226 75.3004 69.2445 74.7069 68.8108C76.7155 66.7566 78.5187 63.4697 79.5687 60.16ZM73.5428 60.0459L76.1905 60.8904C74.7069 64.7708 72.3102 68.9478 69.7994 71.5499C69.5484 70.8651 68.7723 69.313 68.293 68.6282C70.3929 66.5511 72.3787 63.3099 73.5428 60.0459ZM71.2374 66.3457L73.9765 63.5838L73.9993 63.6067V81.3648H71.2374V66.3457Z" fill="#2E3231"/>
    <path d="M46.4707 61.0049H66.306V66.1862H63.4528V63.5385H49.1869V66.1862H46.4707V61.0049ZM52.6564 65.9352H63.2702V68.2862H52.6564V65.9352ZM51.789 70.2035H62.3343V72.6002H51.789V70.2035ZM47.2696 74.1751H59.7297V76.6859H47.2696V74.1751ZM61.5811 70.2035H64.3202C64.3202 70.2035 64.2973 70.9796 64.2289 71.3448C63.7495 76.8914 63.2245 79.2652 62.3115 80.201C61.6496 80.8858 60.9648 81.1141 59.9377 81.1825C59.116 81.2738 57.6323 81.251 56.1715 81.1825C56.103 80.4293 55.7378 79.3337 55.2585 78.6261C56.7421 78.763 58.2714 78.7859 58.9334 78.7859C59.4127 78.7859 59.7323 78.7402 60.0062 78.4891C60.6909 77.9413 61.1931 75.6131 61.5583 70.5915L61.5811 70.2035ZM51.4238 63.8124L54.1857 64.0863C53.6607 66.9167 52.9531 70.4546 52.4281 72.6002H49.5978C50.2141 70.3405 50.9673 66.6428 51.4238 63.8124Z" fill="#2E3231"/>
    <path d="M37.0444 70.4997H39.7607V80.0863H37.0444V70.4997ZM33.0728 72.6909H43.7323V75.2245H33.0728V72.6909ZM32.2511 78.0321H44.2801V80.6798H32.2511V78.0321ZM36.9988 60.0228H39.715V68.628H36.9988V60.0228ZM33.3695 62.6021H43.4812V65.1129H33.3695V62.6021ZM32.5478 67.4867H44.0518V70.0203H32.5478V67.4867ZM26.4763 60H28.9186V65.364H26.4763V60ZM24.5361 64.0629H31.8859V72.805H24.5361V70.591H29.7403V66.2998H24.5361V64.0629ZM23.5318 64.0629H25.6317V73.6952H23.5318V64.0629ZM26.7045 65.0444H28.6675V71.6409H28.8958V77.5299H26.4535V71.6409H26.7045V65.0444ZM22.8242 77.3016C25.0155 77.0734 28.2795 76.6169 31.3609 76.1832L31.4979 78.6027C28.6219 79.082 25.5633 79.5614 23.2351 79.9266L22.8242 77.3016ZM29.4436 74.2202L31.4979 73.5811C32.1826 75.4528 32.8674 77.8495 33.1413 79.4472L30.9501 80.1548C30.7218 78.5342 30.0599 76.0919 29.4436 74.2202Z" fill="#2E3231"/>
    <path d="M14.2202 70.4997H16.9364V80.0863H14.2202V70.4997ZM10.2486 72.6909H20.9081V75.2245H10.2486V72.6909ZM9.42689 78.0321H21.4559V80.6798H9.42689V78.0321ZM14.1746 60.0228H16.8908V68.628H14.1746V60.0228ZM10.5453 62.6021H20.657V65.1129H10.5453V62.6021ZM9.72362 67.4867H21.2276V70.0203H9.72362V67.4867ZM3.65206 60H6.09438V65.364H3.65206V60ZM1.7119 64.0629H9.06168V72.805H1.7119V70.591H6.91609V66.2998H1.7119V64.0629ZM0.707587 64.0629H2.80752V73.6952H0.707587V64.0629ZM3.88032 65.0444H5.8433V71.6409H6.07155V77.5299H3.62924V71.6409H3.88032V65.0444ZM0 77.3016C2.19124 77.0734 5.45527 76.6169 8.5367 76.1832L8.67365 78.6027C5.79765 79.082 2.73905 79.5614 0.410857 79.9266L0 77.3016ZM6.61936 74.2202L8.67365 73.5811C9.35841 75.4528 10.0432 77.8495 10.3171 79.4472L8.12584 80.1548C7.89759 78.5342 7.23565 76.0919 6.61936 74.2202Z" fill="#2E3231"/>
  </g>
  <defs>
    <linearGradient id="paint0_linear_591_7540" x1="22.5422" y1="5.00024" x2="22.5422" y2="35.1289" gradientUnits="userSpaceOnUse">
      <stop stop-color="#1EDC8C"/>
      <stop offset="1" stop-color="#1DBA94"/>
    </linearGradient>
    <linearGradient id="paint1_linear_591_7540" x1="40.8072" y1="28.6057" x2="40.8072" y2="36.992" gradientUnits="userSpaceOnUse">
      <stop stop-color="#1ED98D"/>
      <stop offset="1" stop-color="#1DBC94"/>
    </linearGradient>
    <linearGradient id="paint2_linear_591_7540" x1="8.19316" y1="28.917" x2="8.19316" y2="37.3033" gradientUnits="userSpaceOnUse">
      <stop stop-color="#1ED98D"/>
      <stop offset="1" stop-color="#1DBC94"/>
    </linearGradient>
    <clipPath id="clip0_591_7540">
      <rect width="90" height="21" fill="white" transform="translate(0 60)"/>
    </clipPath>
  </defs>
</svg>
